<svg width="90" height="64" viewBox="0 0 90 64" fill="none" xmlns="http://www.w3.org/2000/svg">
<path opacity="0.3" d="M88.1463 9.85993C87.1084 6.00492 84.0688 2.96539 80.2138 1.9275C73.171 0 44.9998 0 44.9998 0C44.9998 0 16.8286 0 9.78579 1.85337C6.00492 2.89126 2.89126 6.00492 1.85337 9.85993C0 16.9027 0 31.5073 0 31.5073C0 31.5073 0 46.186 1.85337 53.1546C2.89126 57.0096 5.93078 60.0492 9.78579 61.0871C16.9027 63.0146 44.9998 63.0146 44.9998 63.0146C44.9998 63.0146 73.171 63.0146 80.2138 61.1612C84.0688 60.1233 87.1084 57.0838 88.1463 53.2288C89.9996 46.186 89.9996 31.5814 89.9996 31.5814C89.9996 31.5814 90.0738 16.9027 88.1463 9.85993Z" fill="black"/>
<path d="M36.0293 45.0026L59.4559 31.5101L36.0293 18.0176V45.0026Z" fill="white"/>
</svg>
