<svg width="64" height="64" viewBox="0 0 64 64" fill="none" xmlns="http://www.w3.org/2000/svg">
<path fill-rule="evenodd" clip-rule="evenodd" d="M48 28H40H16V42.334C16 45.458 18.542 48 21.666 48H48V28ZM16 24H36V21.666C36 18.542 33.292 16 30.166 16H30H16V24ZM52 24V52H21.666C16.328 52 12 47.672 12 42.334V12H30.5C35.838 12 40 16.328 40 21.666V24H52ZM40.334 38C40.334 36.896 41.228 36 42.334 36C43.438 36 44.334 36.896 44.334 38C44.334 39.104 43.438 40 42.334 40C41.228 40 40.334 39.104 40.334 38Z" fill="#1F3664"/>
</svg>
