<svg width="118" height="118" viewBox="0 0 118 118" fill="none" xmlns="http://www.w3.org/2000/svg">
<circle cx="59" cy="59" r="54" stroke="#F5F8FB" stroke-width="10"/>
<path d="M112.869 59.0004C112.869 88.7518 88.7513 112.87 58.9999 112.87C29.2486 112.87 5.13037 88.7518 5.13037 59.0004C5.13037 29.2491 29.2486 5.13086 58.9999 5.13086C75.0893 5.13086 89.5313 12.1845 99.4021 23.3681" stroke="#1F3664" stroke-width="10" stroke-linecap="round"/>
<path d="M54.3242 64.4492H52.2617V68H48.7227V64.4492H41.4102V61.9297L48.9219 50.8672H52.2617V61.6367H54.3242V64.4492ZM48.7227 61.6367V58.7305C48.7227 58.2461 48.7422 57.543 48.7812 56.6211C48.8203 55.6992 48.8516 55.1641 48.875 55.0156H48.7812C48.4922 55.6562 48.1445 56.2812 47.7383 56.8906L44.5977 61.6367H48.7227ZM56.082 66.3242C56.082 65.668 56.2578 65.1719 56.6094 64.8359C56.9609 64.5 57.4727 64.332 58.1445 64.332C58.793 64.332 59.293 64.5039 59.6445 64.8477C60.0039 65.1914 60.1836 65.6836 60.1836 66.3242C60.1836 66.9414 60.0039 67.4297 59.6445 67.7891C59.2852 68.1406 58.7852 68.3164 58.1445 68.3164C57.4883 68.3164 56.9805 68.1445 56.6211 67.8008C56.2617 67.4492 56.082 66.957 56.082 66.3242ZM71.4688 68H67.8477V58.0859L67.8828 56.457L67.9414 54.6758C67.3398 55.2773 66.9219 55.6719 66.6875 55.8594L64.7188 57.4414L62.9727 55.2617L68.4922 50.8672H71.4688V68Z" fill="black"/>
</svg>
