<svg width="32" height="34" viewBox="0 0 32 34" fill="none" xmlns="http://www.w3.org/2000/svg">
<rect x="4" y="1" width="24" height="32" rx="3" stroke="#1F3664" stroke-width="2"/>
<mask id="path-3-inside-1" fill="white">
<rect x="6" y="3" width="6" height="8" rx="1"/>
</mask>
<rect x="6" y="3" width="6" height="8" rx="1" stroke="#1F3664" stroke-width="4" mask="url(#path-3-inside-1)"/>
<mask id="path-4-inside-2" fill="white">
<rect x="6" y="12" width="6" height="9" rx="1"/>
</mask>
<rect x="6" y="12" width="6" height="9" rx="1" stroke="#1F3664" stroke-width="4" mask="url(#path-4-inside-2)"/>
<mask id="path-5-inside-3" fill="white">
<rect x="6" y="22" width="6" height="9" rx="1"/>
</mask>
<rect x="6" y="22" width="6" height="9" rx="1" stroke="#1F3664" stroke-width="4" mask="url(#path-5-inside-3)"/>
<mask id="path-6-inside-4" fill="white">
<rect x="20" y="3" width="6" height="8" rx="1"/>
</mask>
<rect x="20" y="3" width="6" height="8" rx="1" stroke="#1F3664" stroke-width="4" mask="url(#path-6-inside-4)"/>
<mask id="path-7-inside-5" fill="white">
<rect x="20" y="22" width="6" height="9" rx="1"/>
</mask>
<rect x="20" y="22" width="6" height="9" rx="1" stroke="#1F3664" stroke-width="4" mask="url(#path-7-inside-5)"/>
<mask id="path-8-inside-6" fill="white">
<rect x="13" y="3" width="6" height="28" rx="1"/>
</mask>
<rect x="13" y="3" width="6" height="28" rx="1" stroke="#1F3664" stroke-width="4" mask="url(#path-8-inside-6)"/>
<rect x="20" y="13" width="6" height="2" rx="1" fill="#1F3664"/>
<rect x="21" y="16" width="2" height="4" rx="1" fill="#1F3664"/>
</svg>
