<svg width="32" height="34" viewBox="0 0 32 34" fill="none" xmlns="http://www.w3.org/2000/svg">
<rect x="5" y="1" width="22" height="32" rx="3" stroke="#1F3664" stroke-width="2"/>
<rect x="20" y="16" width="5" height="2" rx="1" fill="#1F3664"/>
<rect x="8" y="4" width="2" height="2" rx="1" fill="#1F3664"/>
<rect x="8" y="10" width="2" height="2" rx="1" fill="#1F3664"/>
<rect x="8" y="22" width="2" height="2" rx="1" fill="#1F3664"/>
<rect x="8" y="28" width="2" height="2" rx="1" fill="#1F3664"/>
<rect x="8" y="16" width="2" height="2" rx="1" fill="#1F3664"/>
<rect x="15" y="10" width="2" height="2" rx="1" fill="#1F3664"/>
<rect x="15" y="22" width="2" height="2" rx="1" fill="#1F3664"/>
<rect x="15" y="28" width="2" height="2" rx="1" fill="#1F3664"/>
<rect x="15" y="16" width="2" height="2" rx="1" fill="#1F3664"/>
<rect x="15" y="4" width="2" height="2" rx="1" fill="#1F3664"/>
<rect x="22" y="4" width="2" height="2" rx="1" fill="#1F3664"/>
<rect x="22" y="10" width="2" height="2" rx="1" fill="#1F3664"/>
<rect x="22" y="22" width="2" height="2" rx="1" fill="#1F3664"/>
<rect x="22" y="28" width="2" height="2" rx="1" fill="#1F3664"/>
</svg>
