<svg width="32" height="32" viewBox="0 0 32 32" fill="none" xmlns="http://www.w3.org/2000/svg">
<mask id="path-2-outside-1" maskUnits="userSpaceOnUse" x="4" y="5" width="24" height="22" fill="black">
<rect fill="white" x="4" y="5" width="24" height="22"/>
<path fill-rule="evenodd" clip-rule="evenodd" d="M16 23.4069L21.8579 17.3462L24.7868 14.3159C26.4044 12.6423 26.4044 9.92881 24.7868 8.25521C23.1692 6.5816 20.5465 6.5816 18.9289 8.25521L16 11.2855L13.0711 8.2552C11.4535 6.5816 8.83081 6.5816 7.2132 8.2552C5.5956 9.92881 5.5956 12.6423 7.2132 14.3159L10.1421 17.3462L16 23.4069Z"/>
</mask>
<path d="M21.8579 17.3462L20.4198 15.9562L20.4198 15.9562L21.8579 17.3462ZM16 23.4069L14.5619 24.7968L16 26.2847L17.4381 24.7968L16 23.4069ZM24.7868 14.3159L26.2249 15.7058V15.7058L24.7868 14.3159ZM24.7868 8.25521L23.3487 9.64516L24.7868 8.25521ZM18.9289 8.25521L17.4909 6.86526V6.86526L18.9289 8.25521ZM16 11.2855L14.5619 12.6755L16 14.1633L17.4381 12.6755L16 11.2855ZM13.0711 8.2552L14.5091 6.86526L13.0711 8.2552ZM7.2132 8.2552L5.77514 6.86525L7.2132 8.2552ZM7.2132 14.3159L8.65127 12.9259L8.65127 12.9259L7.2132 14.3159ZM10.1421 17.3462L8.70407 18.7361L8.70407 18.7361L10.1421 17.3462ZM20.4198 15.9562L14.5619 22.0169L17.4381 24.7968L23.2959 18.7361L20.4198 15.9562ZM23.3487 12.9259L20.4198 15.9562L23.2959 18.7361L26.2249 15.7058L23.3487 12.9259ZM23.3487 9.64516C24.2171 10.5436 24.2171 12.0275 23.3487 12.9259L26.2249 15.7058C28.5917 13.257 28.5917 9.31404 26.2249 6.86526L23.3487 9.64516ZM20.367 9.64516C21.1984 8.78495 22.5173 8.78495 23.3487 9.64516L26.2249 6.86526C23.8211 4.37825 19.8947 4.37825 17.4909 6.86526L20.367 9.64516ZM17.4381 12.6755L20.367 9.64516L17.4909 6.86526L14.5619 9.89559L17.4381 12.6755ZM11.633 9.64515L14.5619 12.6755L17.4381 9.89559L14.5091 6.86526L11.633 9.64515ZM8.65127 9.64515C9.48269 8.78495 10.8016 8.78495 11.633 9.64515L14.5091 6.86526C12.1053 4.37825 8.17892 4.37825 5.77514 6.86525L8.65127 9.64515ZM8.65127 12.9259C7.78291 12.0275 7.78291 10.5436 8.65127 9.64515L5.77514 6.86525C3.40829 9.31404 3.40829 13.257 5.77514 15.7058L8.65127 12.9259ZM11.5802 15.9562L8.65127 12.9259L5.77513 15.7058L8.70407 18.7361L11.5802 15.9562ZM17.4381 22.0169L11.5802 15.9562L8.70407 18.7361L14.5619 24.7968L17.4381 22.0169Z" fill="#1F3664" mask="url(#path-2-outside-1)"/>
</svg>
