<svg width="122" height="19" viewBox="0 0 122 19" fill="none" xmlns="http://www.w3.org/2000/svg">
<path fill-rule="evenodd" clip-rule="evenodd" d="M15 19H4C1.79086 19 0 17.2091 0 15V8C0 5.79086 1.79086 4 4 4H12V0H15V19ZM4 7C3.44772 7 3 7.44772 3 8V15C3 15.5523 3.44772 16 4 16H12V7H4Z" fill="black"/>
<path fill-rule="evenodd" clip-rule="evenodd" d="M21 4H28C30.2091 4 32 5.79086 32 8V15C32 17.2091 30.2091 19 28 19H21C18.7909 19 17 17.2091 17 15V8C17 5.79086 18.7909 4 21 4ZM21 7C20.4477 7 20 7.44772 20 8V15C20 15.5523 20.4477 16 21 16H28C28.5523 16 29 15.5523 29 15V8C29 7.44772 28.5523 7 28 7H21Z" fill="black"/>
<path fill-rule="evenodd" clip-rule="evenodd" d="M45 4H38C35.7909 4 34 5.79086 34 8V15C34 17.2091 35.7909 19 38 19H45C47.2091 19 49 17.2091 49 15V8C49 5.79086 47.2091 4 45 4ZM37 8C37 7.44772 37.4477 7 38 7H45C45.5523 7 46 7.44772 46 8V15C46 15.5523 45.5523 16 45 16H38C37.4477 16 37 15.5523 37 15V8Z" fill="black"/>
<path d="M54 7.5C54 7.22386 54.2239 7 54.5 7H62V4H54.5C52.567 4 51 5.567 51 7.5V19H54V7.5Z" fill="black"/>
<path d="M67 15.5C67 15.7761 67.2239 16 67.5 16H70V19H67.5C65.567 19 64 17.433 64 15.5V0H67V15.5Z" fill="#FF3E3E"/>
<path fill-rule="evenodd" clip-rule="evenodd" d="M76 4H83C85.2091 4 87 5.79086 87 8V15C87 17.2091 85.2091 19 83 19H76C73.7909 19 72 17.2091 72 15V8C72 5.79086 73.7909 4 76 4ZM76 7C75.4477 7 75 7.44772 75 8V15C75 15.5523 75.4477 16 76 16H83C83.5523 16 84 15.5523 84 15V8C84 7.44772 83.5523 7 83 7H76Z" fill="#FF3E3E"/>
<path d="M92.5 7C92.2239 7 92 7.22386 92 7.5V15.5C92 15.7761 92.2239 16 92.5 16H103V19H92.5C90.567 19 89 17.433 89 15.5V7.5C89 5.567 90.567 4 92.5 4H103V7H92.5Z" fill="#FF3E3E"/>
<path d="M109 0H106V19H109V13H111.757C112.155 13 112.537 13.158 112.818 13.4393L118 19H122L115.121 11.5L122 5H118L112.818 9.56066C112.537 9.84196 112.155 10 111.757 10H109V0Z" fill="#FF3E3E"/>
</svg>
