<svg width="64" height="64" viewBox="0 0 64 64" fill="none" xmlns="http://www.w3.org/2000/svg">
<path fill-rule="evenodd" clip-rule="evenodd" d="M40 24C40 19.588 36.412 16 32 16C27.588 16 24 19.588 24 24C24 28.412 27.588 32 32 32C36.412 32 40 28.412 40 24ZM52 52H42V48H47.568C45.916 40.428 39.57 36 32 36C24.43 36 18.084 40.428 16.432 48H22V52H12C12 42.89 17.166 36.096 24.484 33.346C21.752 31.148 20 27.78 20 24C20 17.372 25.372 12 32 12C38.628 12 44 17.372 44 24C44 27.78 42.248 31.148 39.516 33.346C46.834 36.096 52 42.89 52 52ZM36.828 41.514L39.656 44.344L32 52L26.344 46.344L29.172 43.514L32 46.344L36.828 41.514Z" fill="#1F3664"/>
</svg>
