<svg width="12" height="11" viewBox="0 0 12 11" fill="none" xmlns="http://www.w3.org/2000/svg">
<path d="M5.14922 0.569341C5.51145 -0.18978 6.59201 -0.18978 6.95425 0.569341L7.8341 2.41321C7.97988 2.71872 8.27032 2.92974 8.60593 2.97398L10.6314 3.24098C11.4653 3.3509 11.7993 4.37858 11.1892 4.95766L9.70749 6.36424C9.46198 6.59729 9.35104 6.93873 9.41268 7.27157L9.78466 9.28046C9.93781 10.1075 9.06362 10.7427 8.32436 10.3414L6.52875 9.36687C6.23124 9.2054 5.87223 9.2054 5.57472 9.36687L3.77911 10.3414C3.03985 10.7427 2.16566 10.1075 2.31881 9.28046L2.69079 7.27157C2.75242 6.93873 2.64149 6.59729 2.39598 6.36424L0.914243 4.95766C0.304212 4.37858 0.638124 3.3509 1.47203 3.24098L3.49754 2.97398C3.83315 2.92974 4.12359 2.71872 4.26937 2.41321L5.14922 0.569341Z" fill="#D2D7E0"/>
</svg>
