<svg width="64" height="64" viewBox="0 0 64 64" fill="none" xmlns="http://www.w3.org/2000/svg">
<path fill-rule="evenodd" clip-rule="evenodd" d="M34 32C34 33.104 33.104 34 32 34C30.896 34 30 33.104 30 32C30 30.896 30.896 30 32 30C33.104 30 34 30.896 34 32ZM41.64 34.716C40.754 38.054 38.054 40.754 34.716 41.64C27.116 43.656 20.344 36.884 22.36 29.284C23.246 25.946 25.946 23.246 29.284 22.36C36.884 20.344 43.656 27.116 41.64 34.716ZM50 30H46.688C46.206 30 45.544 29.968 45.548 29.486C45.558 27.708 44.976 25.18 43.692 23.796C43.364 23.442 43.46 23.118 43.8 22.778L46.142 20.562C46.924 19.78 46.924 18.576 46.142 17.796C45.362 17.014 44.094 17.046 43.314 17.826L40.972 20.184C40.632 20.524 40.106 20.566 39.704 20.302C38.244 19.338 36.594 18.644 34.82 18.282C34.348 18.184 34 17.794 34 17.312V14C34 12.896 33.104 12 32 12C30.896 12 30 12.896 30 14V17.312C30 17.794 29.652 18.188 29.18 18.286C27.406 18.648 25.756 19.344 24.296 20.308C23.894 20.574 23.368 20.54 23.028 20.2L20.686 17.858C19.906 17.076 18.638 17.076 17.858 17.858C17.076 18.638 17.076 19.906 17.858 20.686L20.2 23.028C20.54 23.368 20.592 23.906 20.308 24.296C19.32 25.662 18.688 27.124 18.404 29.68C18.35 30.158 17.794 30 17.312 30H14C12.896 30 12 30.896 12 32C12 33.104 12.896 34 14 34H17.312C17.794 34 18.378 34.176 18.474 34.646C18.836 36.42 19.346 37.744 20.308 39.204C20.574 39.606 20.54 40.382 20.2 40.722L17.858 43.188C17.076 43.97 17.076 45.298 17.858 46.08C18.638 46.86 19.906 46.892 20.686 46.11L23.028 43.784C23.368 43.444 23.894 43.418 24.296 43.684C25.756 44.646 27.406 45.348 29.18 45.71C29.652 45.808 30 46.206 30 46.688V50C30 51.104 30.896 52 32 52C33.104 52 34 51.104 34 50V46.688C34 46.206 34.348 45.812 34.82 45.714C36.594 45.352 38.244 44.654 39.704 43.692C40.106 43.426 40.632 43.46 40.972 43.8L43.314 46.142C44.094 46.924 45.362 46.924 46.142 46.142C46.924 45.362 46.924 44.094 46.142 43.314L43.8 40.972C43.46 40.632 43.426 40.106 43.692 39.704C44.654 38.244 45.176 37.428 45.714 35.82C45.868 35.364 46.206 34 46.688 34H50C51.104 34 52 33.104 52 32C52 30.896 51.104 30 50 30Z" fill="#1F3664"/>
</svg>
