<svg width="400" height="" viewBox="0 0 400" fill="none" xmlns="http://www.w3.org/2000/svg">
                                        <mask id="mask0" mask-type="alpha" maskUnits="userSpaceOnUse" x="0" y="0" width="400" height="">
                                            <path d="M0 6.00001C0 2.6863 2.68629 0 6 0H394C397.314 0 400 2.68629 400 6V365C400 368.314 397.314 371 394 371H5.99999C2.68629 371 0 368.314 0 365V6.00001Z" fill="#F5F8FB"/>
                                        </mask>
                                        <g mask="url(#mask0)">
                                            <path d="M0 154H400V0H0V154Z" fill="#1F3664"/>
                                            <path fill-rule="evenodd" clip-rule="evenodd" d="M210 83H186V65C186 57.002 192 53 197.997 53H198.003C204 53 210 57.002 210 65V83ZM201 92C201 93.656 199.656 95 198 95C196.344 95 195 93.656 195 92V89H201V92ZM216 83V65C216 54.341 208.896 48.425 201 47.237V41H195V47.237C187.104 48.425 180 54.341 180 65V83H174V89H189V92C189 96.971 193.029 101 198 101C202.971 101 207 96.971 207 92V89H222V83H216Z" fill="white"/>
                                            <g opacity="0.2">
                                                <path opacity="0.5" fill-rule="evenodd" clip-rule="evenodd" d="M89.98 123C89.4293 123 88.9806 122.551 88.9806 122C88.9806 121.449 89.4293 121 89.98 121C90.5307 121 90.9794 121.449 90.9794 122C90.9794 122.551 90.5307 123 89.98 123ZM79.0096 117H89.0036V111H79.0096V117ZM77.9872 123C77.4365 123 76.9878 122.551 76.9878 122C76.9878 121.449 77.4365 121 77.9872 121C78.5379 121 78.9866 121.449 78.9866 122C78.9866 122.551 78.5379 123 77.9872 123ZM91.0024 107H95V105H89.0036V109H77.0108V119.184C76.0114 119.597 75 120.696 75 122C75 123.657 76.3372 125 77.9932 125C79.6492 125 80.9994 123.657 80.9994 122C80.9994 120.696 80.009 119.597 79.0096 119.184V119H89.0036V119.184C88.0042 119.597 86.9928 120.696 86.9928 122C86.9928 123.657 88.33 125 89.986 125C91.642 125 92.9922 123.657 92.9922 122C92.9922 120.696 92.0018 119.597 91.0024 119.184V107Z" fill="white"/>
                                                <path fill-rule="evenodd" clip-rule="evenodd" d="M33.812 110.813H35.812V108.813H33.812V110.813ZM41.515 122.172L32 112.657V107H37.657L47.172 116.515L41.515 122.172ZM49.381 115.896L38.485 105H30V113.485C34.088 117.573 39.358 122.844 41.515 125C44.706 121.809 46.929 119.586 50 116.515L49.381 115.896Z" fill="white" fill-opacity="0.5"/>
                                                <path fill-rule="evenodd" clip-rule="evenodd" d="M123.812 110.813H125.812V108.813H123.812V110.813ZM131.515 122.172L122 112.657V107H127.657L137.172 116.515L131.515 122.172ZM139.381 115.896L128.485 105H120V113.485C124.088 117.573 129.358 122.844 131.515 125C134.706 121.809 136.929 119.586 140 116.515L139.381 115.896Z" fill="white" fill-opacity="0.5"/>
                                            </g>
                                            <g opacity="0.2">
                                                <path opacity="0.5" fill-rule="evenodd" clip-rule="evenodd" d="M274.98 48C274.429 48 273.981 47.551 273.981 47C273.981 46.449 274.429 46 274.98 46C275.531 46 275.979 46.449 275.979 47C275.979 47.551 275.531 48 274.98 48ZM264.01 42H274.004V36H264.01V42ZM262.987 48C262.437 48 261.988 47.551 261.988 47C261.988 46.449 262.437 46 262.987 46C263.538 46 263.987 46.449 263.987 47C263.987 47.551 263.538 48 262.987 48ZM276.002 32H280V30H274.004V34H262.011V44.184C261.011 44.597 260 45.696 260 47C260 48.657 261.337 50 262.993 50C264.649 50 265.999 48.657 265.999 47C265.999 45.696 265.009 44.597 264.01 44.184V44H274.004V44.184C273.004 44.597 271.993 45.696 271.993 47C271.993 48.657 273.33 50 274.986 50C276.642 50 277.992 48.657 277.992 47C277.992 45.696 277.002 44.597 276.002 44.184V32Z" fill="white"/>
                                                <path fill-rule="evenodd" clip-rule="evenodd" d="M308.812 35.813H310.812V33.813H308.812V35.813ZM316.515 47.172L307 37.657V32H312.657L322.172 41.515L316.515 47.172ZM324.381 40.896L313.485 30H305V38.485C309.088 42.573 314.358 47.844 316.515 50C319.706 46.809 321.929 44.586 325 41.515L324.381 40.896Z" fill="white" fill-opacity="0.5"/>
                                                <path opacity="0.5" fill-rule="evenodd" clip-rule="evenodd" d="M364.98 48C364.429 48 363.981 47.551 363.981 47C363.981 46.449 364.429 46 364.98 46C365.531 46 365.979 46.449 365.979 47C365.979 47.551 365.531 48 364.98 48ZM354.01 42H364.004V36H354.01V42ZM352.987 48C352.437 48 351.988 47.551 351.988 47C351.988 46.449 352.437 46 352.987 46C353.538 46 353.987 46.449 353.987 47C353.987 47.551 353.538 48 352.987 48ZM366.002 32H370V30H364.004V34H352.011V44.184C351.011 44.597 350 45.696 350 47C350 48.657 351.337 50 352.993 50C354.649 50 355.999 48.657 355.999 47C355.999 45.696 355.009 44.597 354.01 44.184V44H364.004V44.184C363.004 44.597 361.993 45.696 361.993 47C361.993 48.657 363.33 50 364.986 50C366.642 50 367.992 48.657 367.992 47C367.992 45.696 367.002 44.597 366.002 44.184V32Z" fill="white"/>
                                            </g>
                                            <g opacity="0.2">
                                                <path opacity="0.5" fill-rule="evenodd" clip-rule="evenodd" d="M89.98 49C89.4293 49 88.9806 48.551 88.9806 48C88.9806 47.449 89.4293 47 89.98 47C90.5307 47 90.9794 47.449 90.9794 48C90.9794 48.551 90.5307 49 89.98 49ZM79.0096 43H89.0036V37H79.0096V43ZM77.9872 49C77.4365 49 76.9878 48.551 76.9878 48C76.9878 47.449 77.4365 47 77.9872 47C78.5379 47 78.9866 47.449 78.9866 48C78.9866 48.551 78.5379 49 77.9872 49ZM91.0024 33H95V31H89.0036V35H77.0108V45.184C76.0114 45.597 75 46.696 75 48C75 49.657 76.3372 51 77.9932 51C79.6492 51 80.9994 49.657 80.9994 48C80.9994 46.696 80.009 45.597 79.0096 45.184V45H89.0036V45.184C88.0042 45.597 86.9928 46.696 86.9928 48C86.9928 49.657 88.33 51 89.986 51C91.642 51 92.9922 49.657 92.9922 48C92.9922 46.696 92.0018 45.597 91.0024 45.184V33Z" fill="white"/>
                                                <path fill-rule="evenodd" clip-rule="evenodd" d="M33.812 36.813H35.812V34.813H33.812V36.813ZM41.515 48.172L32 38.657V33H37.657L47.172 42.515L41.515 48.172ZM49.381 41.896L38.485 31H30V39.485C34.088 43.573 39.358 48.844 41.515 51C44.706 47.809 46.929 45.586 50 42.515L49.381 41.896Z" fill="white" fill-opacity="0.5"/>
                                                <path fill-rule="evenodd" clip-rule="evenodd" d="M123.812 36.813H125.812V34.813H123.812V36.813ZM131.515 48.172L122 38.657V33H127.657L137.172 42.515L131.515 48.172ZM139.381 41.896L128.485 31H120V39.485C124.088 43.573 129.358 48.844 131.515 51C134.706 47.809 136.929 45.586 140 42.515L139.381 41.896Z" fill="white" fill-opacity="0.5"/>
                                            </g>
                                            <g opacity="0.2">
                                                <path opacity="0.5" fill-rule="evenodd" clip-rule="evenodd" d="M319.98 85C319.429 85 318.981 84.551 318.981 84C318.981 83.449 319.429 83 319.98 83C320.531 83 320.979 83.449 320.979 84C320.979 84.551 320.531 85 319.98 85ZM309.01 79H319.004V73H309.01V79ZM307.987 85C307.437 85 306.988 84.551 306.988 84C306.988 83.449 307.437 83 307.987 83C308.538 83 308.987 83.449 308.987 84C308.987 84.551 308.538 85 307.987 85ZM321.002 69H325V67H319.004V71H307.011V81.184C306.011 81.597 305 82.696 305 84C305 85.657 306.337 87 307.993 87C309.649 87 310.999 85.657 310.999 84C310.999 82.696 310.009 81.597 309.01 81.184V81H319.004V81.184C318.004 81.597 316.993 82.696 316.993 84C316.993 85.657 318.33 87 319.986 87C321.642 87 322.992 85.657 322.992 84C322.992 82.696 322.002 81.597 321.002 81.184V69Z" fill="white"/>
                                                <path fill-rule="evenodd" clip-rule="evenodd" d="M263.812 72.813H265.812V70.813H263.812V72.813ZM271.515 84.172L262 74.657V69H267.657L277.172 78.515L271.515 84.172ZM279.381 77.896L268.485 67H260V75.485C264.088 79.573 269.358 84.844 271.515 87C274.706 83.809 276.929 81.586 280 78.515L279.381 77.896Z" fill="white" fill-opacity="0.5"/>
                                                <path fill-rule="evenodd" clip-rule="evenodd" d="M353.812 72.813H355.812V70.813H353.812V72.813ZM361.515 84.172L352 74.657V69H357.657L367.172 78.515L361.515 84.172ZM369.381 77.896L358.485 67H350V75.485C354.088 79.573 359.358 84.844 361.515 87C364.706 83.809 366.929 81.586 370 78.515L369.381 77.896Z" fill="white" fill-opacity="0.5"/>
                                            </g>
                                            <g opacity="0.2">
                                                <path opacity="0.5" fill-rule="evenodd" clip-rule="evenodd" d="M44.98 86C44.4293 86 43.9806 85.551 43.9806 85C43.9806 84.449 44.4293 84 44.98 84C45.5307 84 45.9794 84.449 45.9794 85C45.9794 85.551 45.5307 86 44.98 86ZM34.0096 80H44.0036V74H34.0096V80ZM32.9872 86C32.4365 86 31.9878 85.551 31.9878 85C31.9878 84.449 32.4365 84 32.9872 84C33.5379 84 33.9866 84.449 33.9866 85C33.9866 85.551 33.5379 86 32.9872 86ZM46.0024 70H50V68H44.0036V72H32.0108V82.184C31.0114 82.597 30 83.696 30 85C30 86.657 31.3372 88 32.9932 88C34.6492 88 35.9994 86.657 35.9994 85C35.9994 83.696 35.009 82.597 34.0096 82.184V82H44.0036V82.184C43.0042 82.597 41.9928 83.696 41.9928 85C41.9928 86.657 43.33 88 44.986 88C46.642 88 47.9922 86.657 47.9922 85C47.9922 83.696 47.0018 82.597 46.0024 82.184V70Z" fill="white"/>
                                                <path fill-rule="evenodd" clip-rule="evenodd" d="M78.812 73.813H80.812V71.813H78.812V73.813ZM86.515 85.172L77 75.657V70H82.657L92.172 79.515L86.515 85.172ZM94.381 78.896L83.485 68H75V76.485C79.088 80.573 84.358 85.844 86.515 88C89.706 84.809 91.929 82.586 95 79.515L94.381 78.896Z" fill="white" fill-opacity="0.5"/>
                                                <path opacity="0.5" fill-rule="evenodd" clip-rule="evenodd" d="M134.98 86C134.429 86 133.981 85.551 133.981 85C133.981 84.449 134.429 84 134.98 84C135.531 84 135.979 84.449 135.979 85C135.979 85.551 135.531 86 134.98 86ZM124.01 80H134.004V74H124.01V80ZM122.987 86C122.437 86 121.988 85.551 121.988 85C121.988 84.449 122.437 84 122.987 84C123.538 84 123.987 84.449 123.987 85C123.987 85.551 123.538 86 122.987 86ZM136.002 70H140V68H134.004V72H122.011V82.184C121.011 82.597 120 83.696 120 85C120 86.657 121.337 88 122.993 88C124.649 88 125.999 86.657 125.999 85C125.999 83.696 125.009 82.597 124.01 82.184V82H134.004V82.184C133.004 82.597 131.993 83.696 131.993 85C131.993 86.657 133.33 88 134.986 88C136.642 88 137.992 86.657 137.992 85C137.992 83.696 137.002 82.597 136.002 82.184V70Z" fill="white"/>
                                            </g>
                                            <g opacity="0.2">
                                                <path opacity="0.5" fill-rule="evenodd" clip-rule="evenodd" d="M274.98 122C274.429 122 273.981 121.551 273.981 121C273.981 120.449 274.429 120 274.98 120C275.531 120 275.979 120.449 275.979 121C275.979 121.551 275.531 122 274.98 122ZM264.01 116H274.004V110H264.01V116ZM262.987 122C262.437 122 261.988 121.551 261.988 121C261.988 120.449 262.437 120 262.987 120C263.538 120 263.987 120.449 263.987 121C263.987 121.551 263.538 122 262.987 122ZM276.002 106H280V104H274.004V108H262.011V118.184C261.011 118.597 260 119.696 260 121C260 122.657 261.337 124 262.993 124C264.649 124 265.999 122.657 265.999 121C265.999 119.696 265.009 118.597 264.01 118.184V118H274.004V118.184C273.004 118.597 271.993 119.696 271.993 121C271.993 122.657 273.33 124 274.986 124C276.642 124 277.992 122.657 277.992 121C277.992 119.696 277.002 118.597 276.002 118.184V106Z" fill="white"/>
                                                <path fill-rule="evenodd" clip-rule="evenodd" d="M308.812 109.813H310.812V107.813H308.812V109.813ZM316.515 121.172L307 111.657V106H312.657L322.172 115.515L316.515 121.172ZM324.381 114.896L313.485 104H305V112.485C309.088 116.573 314.358 121.844 316.515 124C319.706 120.809 321.929 118.586 325 115.515L324.381 114.896Z" fill="white" fill-opacity="0.5"/>
                                                <path opacity="0.5" fill-rule="evenodd" clip-rule="evenodd" d="M364.98 122C364.429 122 363.981 121.551 363.981 121C363.981 120.449 364.429 120 364.98 120C365.531 120 365.979 120.449 365.979 121C365.979 121.551 365.531 122 364.98 122ZM354.01 116H364.004V110H354.01V116ZM352.987 122C352.437 122 351.988 121.551 351.988 121C351.988 120.449 352.437 120 352.987 120C353.538 120 353.987 120.449 353.987 121C353.987 121.551 353.538 122 352.987 122ZM366.002 106H370V104H364.004V108H352.011V118.184C351.011 118.597 350 119.696 350 121C350 122.657 351.337 124 352.993 124C354.649 124 355.999 122.657 355.999 121C355.999 119.696 355.009 118.597 354.01 118.184V118H364.004V118.184C363.004 118.597 361.993 119.696 361.993 121C361.993 122.657 363.33 124 364.986 124C366.642 124 367.992 122.657 367.992 121C367.992 119.696 367.002 118.597 366.002 118.184V106Z" fill="white"/>
                                            </g>
                                        </g>
                                    </svg>