<svg width="197" height="251" viewBox="0 0 197 251" fill="none" xmlns="http://www.w3.org/2000/svg">
<path d="M69.3652 112.986L70.7954 126.572L75.086 136.584L81.5219 142.305L90.1031 148.741L99.3994 155.176L104.405 153.746H119.422L130.864 145.88L144.451 138.729L138.73 128.718V121.567L135.87 117.991V106.55L127.288 97.2533L119.422 87.957H87.2427L81.5219 94.3929L75.086 101.544L69.3652 112.986Z" fill="#F34340"/>
<path d="M92.9622 248.14L129.432 251L145.88 241.704L150.17 238.109L142.304 209.524L125.857 197.368L109.41 183.781L104.404 153.746L99.3981 155.177L90.1018 148.741L81.5206 142.305L75.0847 136.584L70.7941 126.573L32.8939 138.729L6.33301 145.88L7.15026 148.741L19.307 163.758L25.7429 181.635L59.3526 233.122L92.9622 248.14Z" fill="#B3DE2D"/>
<path d="M192.362 160.896L196.652 145.164V73.6543L169.478 77.9449L153.746 82.9506L135.869 87.9563L127.287 97.2526L135.869 106.549V117.99L138.729 121.566V128.717L144.45 138.728L130.863 145.879L119.421 153.745H104.404L109.41 183.78L125.857 197.367L142.305 209.523L150.171 238.108L172.339 219.535L196.652 190.931L195.222 175.198L192.362 160.896Z" fill="#C24AFB"/>
<path d="M44.3357 20.0228L31.4639 22.1681L40.0451 37.9003L57.2075 77.9459L64.3585 80.8063L81.5209 94.3932L87.2416 87.9573H119.421L127.287 97.2536L135.868 87.9573L153.746 82.9516L169.478 77.9459L196.652 73.6553V65.0741L138.729 12.8718H117.991L91.5322 0L70.0793 3.5755L44.3357 20.0228Z" fill="#F99E27"/>
<path d="M0 92.2458V123.71L6.33374 145.878L32.8946 138.727L70.7949 126.571L69.3647 112.984L75.0855 101.542L81.5214 94.3911L64.359 80.8042L57.208 77.9438L40.0456 37.8982L31.4644 22.166L15.7322 31.4623C13.8253 35.7529 10.0114 44.6201 10.0114 45.7643C10.0114 46.9085 11.4416 52.9153 12.1567 55.7757L7.8661 77.9438L0 92.2458Z" fill="#4FBBDB"/>
</svg>
