<svg width="29" height="8" viewBox="0 0 29 8" fill="none" xmlns="http://www.w3.org/2000/svg">
<path fill-rule="evenodd" clip-rule="evenodd" d="M26.4424 0.319786C26.8504 0.260241 27.2767 0.230469 27.7214 0.230469C28.1661 0.230469 28.5924 0.260241 29.0004 0.319786V2.47393H26.4424V0.319786Z" fill="#D02D42"/>
<path fill-rule="evenodd" clip-rule="evenodd" d="M26.4424 7.36576C26.8504 7.42531 27.2767 7.45508 27.7214 7.45508C28.1661 7.45508 28.5924 7.42531 29.0004 7.36576V5.21162H26.4424V7.36576Z" fill="#D02D42"/>
<path fill-rule="evenodd" clip-rule="evenodd" d="M17.2725 0.396484V7.30786H19.6975V4.65848H20.615L22.6297 7.30786H25.6354L22.6297 3.64058L25.4987 0.396484H22.6297L20.615 2.94313H19.6975V0.396484H17.2725Z" fill="#242265"/>
<path fill-rule="evenodd" clip-rule="evenodd" d="M8.68652 0.367464L9.00435 2.19738C10.0864 2.12445 10.9841 2.08799 11.6976 2.08799C12.411 2.08799 13.1189 2.12445 13.8211 2.19738L13.9435 2.90298H10.7464V4.72211H13.9435L13.8211 5.51379C13.2091 5.56527 12.4709 5.59101 11.6066 5.59101C10.7422 5.59101 9.87482 5.56527 9.00435 5.51379L8.68652 7.29602C9.97448 7.36614 11.1788 7.4012 12.2994 7.4012C13.42 7.4012 14.5333 7.36614 15.6393 7.29602C16.0493 6.19181 16.2543 5.05966 16.2543 3.89958C16.2543 2.73951 16.0493 1.56213 15.6393 0.367464C14.7855 0.303477 13.7316 0.271484 12.4777 0.271484C11.2239 0.271484 9.96011 0.303477 8.68652 0.367464Z" fill="#242265"/>
<path fill-rule="evenodd" clip-rule="evenodd" d="M0 0.392578V7.28265H2.47837V2.30024H5.32601V7.28265H7.82795V0.392578H0Z" fill="#242265"/>
</svg>
