<svg width="23" height="29" viewBox="0 0 23 29" fill="none" xmlns="http://www.w3.org/2000/svg">
<path d="M6 1.5C3.51472 1.5 1.5 3.51472 1.5 6V17C1.5 19.4853 3.51472 21.5 6 21.5H6.1459C6.71406 21.5 7.23345 21.821 7.48754 22.3292L9.26393 25.882C10.1852 27.7246 12.8148 27.7246 13.7361 25.882L15.5125 22.3292C15.7665 21.821 16.2859 21.5 16.8541 21.5H17C19.4853 21.5 21.5 19.4853 21.5 17V6C21.5 3.51472 19.4853 1.5 17 1.5H6Z" fill="white" stroke="black" stroke-width="3"/>
<rect x="7" y="7" width="9" height="9" rx="2" fill="#FF3E3E"/>
</svg>
