<svg width="32" height="32" viewBox="0 0 32 32" fill="none" xmlns="http://www.w3.org/2000/svg">
<path d="M25 28C26.6569 28 28 26.6569 28 25L28 7C28 5.34315 26.6569 4 25 4L7 4C5.34315 4 4 5.34315 4 7L4 25C4 26.6569 5.34314 28 7 28L25 28Z" stroke="#1F3664" stroke-width="2"/>
<rect x="7" y="7" width="5" height="2" rx="1" fill="#1F3664"/>
<rect x="7" y="11" width="7" height="2" rx="1" fill="#1F3664"/>
<rect x="7" y="19" width="3" height="2" rx="1" fill="#1F3664"/>
<rect x="11" y="19" width="5" height="2" rx="1" fill="#1F3664"/>
<rect x="7" y="23" width="5" height="2" rx="1" fill="#1F3664"/>
<rect x="18" y="7" width="7" height="2" rx="1" fill="#1F3664"/>
<rect x="21" y="11" width="4" height="2" rx="1" fill="#1F3664"/>
<circle cx="22" cy="22" r="2" stroke="#1F3664" stroke-width="2"/>
</svg>
