<svg width="181" height="48" viewBox="0 0 181 48" fill="none" xmlns="http://www.w3.org/2000/svg">
<path d="M27.4375 47H14.9062V22.8125C14.9062 19.875 14.9688 17.1875 15.0938 14.75C14.3229 15.6875 13.3646 16.6667 12.2188 17.6875L7.03125 21.9688L0.625 14.0938L16.3125 1.3125H27.4375V47ZM49.375 28.625H37.75V20.25H49.375V8.78125H57.7812V20.25H69.4062V28.625H57.7812V39.9062H49.375V28.625ZM101.188 47H88.6562V22.8125C88.6562 19.875 88.7188 17.1875 88.8438 14.75C88.0729 15.6875 87.1146 16.6667 85.9688 17.6875L80.7812 21.9688L74.375 14.0938L90.0625 1.3125H101.188V47ZM111.5 21.5312V13.1562H143.219V21.5312H111.5ZM111.5 35.8125V27.3438H143.219V35.8125H111.5ZM179.031 11.2188C179.031 14.0521 178.167 16.4896 176.438 18.5312C174.708 20.5521 172.208 22.0208 168.938 22.9375V23.125C176.562 24.0833 180.375 27.6875 180.375 33.9375C180.375 38.1875 178.688 41.5312 175.312 43.9688C171.958 46.4062 167.292 47.625 161.312 47.625C158.854 47.625 156.573 47.4479 154.469 47.0938C152.385 46.7396 150.125 46.0938 147.688 45.1562V34.9062C149.688 35.9271 151.719 36.6875 153.781 37.1875C155.865 37.6667 157.781 37.9062 159.531 37.9062C162.24 37.9062 164.208 37.5312 165.438 36.7812C166.688 36.0104 167.312 34.8125 167.312 33.1875C167.312 31.9375 166.99 30.9792 166.344 30.3125C165.698 29.625 164.656 29.1146 163.219 28.7812C161.781 28.4271 159.906 28.25 157.594 28.25H154.781V18.9688H157.656C163.927 18.9688 167.062 17.3646 167.062 14.1562C167.062 12.9479 166.594 12.0521 165.656 11.4688C164.74 10.8854 163.5 10.5938 161.938 10.5938C159.021 10.5938 156 11.5729 152.875 13.5312L147.75 5.28125C150.167 3.61458 152.635 2.42708 155.156 1.71875C157.698 1.01042 160.604 0.65625 163.875 0.65625C168.604 0.65625 172.312 1.59375 175 3.46875C177.688 5.34375 179.031 7.92708 179.031 11.2188Z" fill="#F5F8FB"/>
</svg>
