<svg width="155" height="48" viewBox="0 0 155 48" fill="none" xmlns="http://www.w3.org/2000/svg">
<path d="M0.8125 34.7188V24.9688H18.4688V34.7188H0.8125ZM49.2812 47H36.75V22.8125C36.75 19.875 36.8125 17.1875 36.9375 14.75C36.1667 15.6875 35.2083 16.6667 34.0625 17.6875L28.875 21.9688L22.4688 14.0938L38.1562 1.3125H49.2812V47ZM78.0938 17.0625C80.7188 17.0625 83.0833 17.6771 85.1875 18.9062C87.3125 20.1146 88.9583 21.8333 90.125 24.0625C91.3125 26.2917 91.9062 28.8646 91.9062 31.7812C91.9062 36.8854 90.3646 40.8021 87.2812 43.5312C84.2188 46.2604 79.5729 47.625 73.3438 47.625C68.0104 47.625 63.6562 46.8021 60.2812 45.1562V35.0312C62.0938 35.8646 64.1354 36.5521 66.4062 37.0938C68.6979 37.6354 70.6667 37.9062 72.3125 37.9062C74.6042 37.9062 76.3646 37.4271 77.5938 36.4688C78.8229 35.4896 79.4375 34.0521 79.4375 32.1562C79.4375 30.4062 78.8125 29.0417 77.5625 28.0625C76.3125 27.0833 74.4167 26.5938 71.875 26.5938C69.9375 26.5938 67.8438 26.9583 65.5938 27.6875L61.0625 25.4375L62.7812 1.3125H88.8438V11.5938H73.2812L72.7188 17.625C74.3438 17.3125 75.5 17.1458 76.1875 17.125C76.875 17.0833 77.5104 17.0625 78.0938 17.0625ZM105.406 15.0625C105.406 17.4583 105.604 19.1875 106 20.25C106.396 21.3125 106.99 21.8438 107.781 21.8438C108.573 21.8438 109.156 21.3229 109.531 20.2812C109.927 19.2396 110.125 17.5 110.125 15.0625C110.125 12.6667 109.927 10.9375 109.531 9.875C109.156 8.8125 108.573 8.28125 107.781 8.28125C106.969 8.28125 106.365 8.82292 105.969 9.90625C105.594 10.9896 105.406 12.7083 105.406 15.0625ZM119.562 14.9375C119.562 19.5208 118.531 23.0729 116.469 25.5938C114.406 28.0938 111.469 29.3438 107.656 29.3438C104.073 29.3438 101.229 28.0521 99.125 25.4688C97.0417 22.8646 96 19.3542 96 14.9375C96 10.3542 97.0208 6.83333 99.0625 4.375C101.104 1.89583 103.969 0.65625 107.656 0.65625C111.302 0.65625 114.198 1.9375 116.344 4.5C118.49 7.0625 119.562 10.5417 119.562 14.9375ZM142.344 1.3125L117 47H107.719L133.062 1.3125H142.344ZM140.156 33.25C140.156 35.6458 140.354 37.375 140.75 38.4375C141.146 39.5 141.74 40.0312 142.531 40.0312C143.427 40.0312 144.042 39.4271 144.375 38.2188C144.729 36.9896 144.906 35.3333 144.906 33.25C144.906 31.1667 144.729 29.5208 144.375 28.3125C144.042 27.0833 143.427 26.4688 142.531 26.4688C141.719 26.4688 141.115 27.0104 140.719 28.0938C140.344 29.1771 140.156 30.8958 140.156 33.25ZM154.312 33.125C154.312 37.6875 153.271 41.2292 151.188 43.75C149.125 46.25 146.198 47.5 142.406 47.5C138.823 47.5 135.979 46.2083 133.875 43.625C131.792 41.0208 130.75 37.5208 130.75 33.125C130.75 28.5417 131.771 25.0208 133.812 22.5625C135.854 20.0833 138.719 18.8438 142.406 18.8438C146.052 18.8438 148.948 20.125 151.094 22.6875C153.24 25.25 154.312 28.7292 154.312 33.125Z" fill="#F5F8FB"/>
</svg>
