<svg width="10" height="10" viewBox="0 0 10 10" fill="none" xmlns="http://www.w3.org/2000/svg">
<path fill-rule="evenodd" clip-rule="evenodd" d="M2.17146 0.757737C1.78094 0.367213 1.14777 0.367213 0.757249 0.757737C0.366725 1.14826 0.366725 1.78143 0.757249 2.17195L3.58568 5.00038L0.757249 7.8288C0.366725 8.21933 0.366724 8.85249 0.757249 9.24302C1.14777 9.63354 1.78094 9.63354 2.17146 9.24302L4.99989 6.41459L7.82832 9.24302C8.21884 9.63354 8.85201 9.63354 9.24253 9.24302C9.63305 8.85249 9.63305 8.21933 9.24253 7.8288L6.4141 5.00038L9.24253 2.17195C9.63305 1.78143 9.63305 1.14826 9.24253 0.757737C8.85201 0.367213 8.21884 0.367213 7.82832 0.757737L4.99989 3.58616L2.17146 0.757737Z" fill="#1F3664"/>
</svg>
