<?xml version="1.0" standalone="no"?>
<!DOCTYPE svg PUBLIC "-//W3C//DTD SVG 20010904//EN"
 "http://www.w3.org/TR/2001/REC-SVG-20010904/DTD/svg10.dtd">
<svg version="1.0" xmlns="http://www.w3.org/2000/svg"
 width="1024.000000pt" height="1024.000000pt" viewBox="0 0 1024.000000 1024.000000"
 preserveAspectRatio="xMidYMid meet">
<metadata>
Created by potrace 1.11, written by Peter Selinger 2001-2013
</metadata>
<g transform="translate(0.000000,1024.000000) scale(0.100000,-0.100000)"
fill="#000000" stroke="none">
<path d="M4187 8164 c-1 -2 -34 -4 -72 -5 -86 -2 -268 -25 -313 -38 -18 -5
-35 -10 -37 -10 -35 1 -222 -56 -325 -98 -163 -68 -427 -215 -438 -244 -2 -5
-10 -9 -17 -9 -7 0 -15 -3 -17 -8 -1 -4 -23 -23 -48 -42 -110 -85 -279 -252
-365 -360 -32 -41 -62 -77 -65 -80 -18 -15 -144 -217 -180 -290 -109 -217
-185 -448 -206 -623 -4 -29 -10 -73 -14 -99 -7 -49 -12 -144 -14 -288 -1 -79
-3 -86 -25 -97 -13 -7 -28 -13 -34 -13 -19 0 -239 -112 -322 -163 -395 -246
-699 -638 -838 -1082 -62 -200 -86 -382 -82 -630 2 -99 6 -196 10 -215 44
-257 94 -427 178 -598 55 -112 170 -293 206 -326 11 -11 21 -23 21 -28 0 -29
238 -260 375 -365 284 -216 619 -341 995 -370 83 -7 5175 -9 5295 -3 64 3 225
25 255 35 10 3 27 8 37 10 112 23 240 69 367 132 77 38 209 121 214 134 2 5
10 9 17 9 7 0 15 3 17 8 2 4 26 25 53 46 83 65 265 255 315 326 13 19 27 37
31 40 29 21 180 309 204 390 4 14 13 39 20 55 13 28 48 164 59 230 21 119 28
390 12 535 -25 242 -136 537 -286 761 -32 47 -65 92 -72 100 -8 8 -21 25 -30
38 -53 76 -239 249 -348 322 -36 24 -67 46 -70 49 -8 8 -49 31 -142 77 -96 48
-256 103 -359 123 l-67 13 18 53 c20 56 46 178 56 259 7 54 7 297 0 330 -2 11
-8 45 -12 75 -4 30 -9 57 -9 60 -1 3 -5 19 -9 35 -36 139 -125 326 -204 428
-31 39 -59 74 -62 77 -3 3 -23 25 -45 50 -21 24 -60 62 -85 83 -25 22 -56 49
-70 61 -35 30 -157 110 -207 135 -86 43 -230 93 -308 106 -16 3 -57 10 -90 16
-61 11 -320 14 -365 4 -14 -2 -50 -9 -80 -15 -134 -25 -311 -93 -414 -158 -56
-36 -66 -38 -66 -18 0 8 -3 16 -8 18 -4 2 -23 28 -42 58 -110 176 -276 358
-464 510 -78 64 -277 200 -291 200 -3 0 -22 10 -43 23 -110 68 -421 187 -529
203 -26 3 -55 10 -63 15 -9 4 -43 10 -75 14 -33 4 -67 8 -75 10 -38 10 -345
26 -353 19z"/>
</g>
</svg>
