<svg width="16" height="16" viewBox="0 0 16 16" fill="none" xmlns="http://www.w3.org/2000/svg">
<path d="M11.4258 2.3359C10.8694 1.5013 9.93269 1 8.92963 1L4 1C2.34315 0.999999 1 2.34315 1 4L1 12C0.999999 13.6569 2.34314 15 4 15L8.92963 15C9.93269 15 10.8694 14.4987 11.4258 13.6641L14.0924 9.6641C14.7642 8.6564 14.7642 7.3436 14.0924 6.3359L11.4258 2.3359Z" stroke="#1F3664" stroke-width="2"/>
<circle cx="11" cy="8" r="1" fill="#1F3664"/>
<rect x="3" y="4" width="5" height="2" rx="1" fill="#1F3664"/>
<rect x="3" y="7" width="3" height="2" rx="1" fill="#1F3664"/>
<rect x="3" y="10" width="3" height="2" rx="1" fill="#1F3664"/>
</svg>
